<svg xmlns="http://www.w3.org/2000/svg" version="1.1" xmlns:xlink="http://www.w3.org/1999/xlink" xmlns:svgjs="http://svgjs.dev/svgjs" width="128" height="128" viewBox="0 0 128 128"><g transform="matrix(0.5508021390374331,0,0,0.5508021390374331,28.68921779055603,12.760752631578946)"><svg viewBox="0 0 65 95" data-background-color="#000000" preserveAspectRatio="xMidYMid meet" height="187" width="128" xmlns="http://www.w3.org/2000/svg" xmlns:xlink="http://www.w3.org/1999/xlink"><g id="tight-bounds" transform="matrix(1,0,0,1,0.054805655020587096,-0.24049999999999727)"><svg viewBox="0 0 64.89038868995881 95.481" height="95.481" width="64.89038868995881"><g><svg viewBox="0 0 64.89038868995881 95.481" height="95.481" width="64.89038868995881"><g><svg viewBox="0 0 64.89038868995881 95.481" height="95.481" width="64.89038868995881"><g id="textblocktransform"><svg viewBox="0 0 64.89038868995881 95.481" height="95.481" width="64.89038868995881" id="textblock"><g><svg viewBox="0 0 64.89038868995881 95.481" height="95.481" width="64.89038868995881"><g><svg viewBox="0 0 64.89038868995881 95.481" height="95.481" width="64.89038868995881"><g><svg xmlns="http://www.w3.org/2000/svg" xmlns:xlink="http://www.w3.org/1999/xlink" version="1.1" x="0" y="0" viewBox="6.484999999999999 2 19.029240197723595 28" enable-background="new 0 0 32 32" xml:space="preserve" height="95.481" width="64.89038868995881" class="icon-icon-0" data-fill-palette-color="accent" id="icon-0"></svg></g></svg></g></svg></g></svg></g></svg></g><g></g></svg></g><defs></defs><mask id="af87346c-666d-42d9-9035-b357b2a1c294"><g id="SvgjsG1096"><svg viewBox="0 0 64.89038868995881 95.481" height="95.481" width="64.89038868995881"><g><svg viewBox="0 0 64.89038868995881 95.481" height="95.481" width="64.89038868995881"><g><svg viewBox="0 0 64.89038868995881 95.481" height="95.481" width="64.89038868995881"><g id="SvgjsG1095"><svg viewBox="0 0 64.89038868995881 95.481" height="95.481" width="64.89038868995881" id="SvgjsSvg1094"><g><svg viewBox="0 0 64.89038868995881 95.481" height="95.481" width="64.89038868995881"><g><svg viewBox="0 0 64.89038868995881 95.481" height="95.481" width="64.89038868995881"><g><svg xmlns="http://www.w3.org/2000/svg" xmlns:xlink="http://www.w3.org/1999/xlink" version="1.1" x="0" y="0" viewBox="6.484999999999999 2 19.029240197723595 28" enable-background="new 0 0 32 32" xml:space="preserve" height="95.481" width="64.89038868995881" class="icon-icon-0" data-fill-palette-color="accent" id="SvgjsSvg1093"><path d="M24.485 2c0 8-18 4-18 20 0 6 2 8 2 8h2c0 0-3-2-3-8 0-4 9-8 9-8s-7.981 4.328-7.981 8.436C21.239 24.431 28.288 9.606 24.485 2z" fill="white"></path></svg></g></svg></g></svg></g></svg></g></svg></g><g></g></svg></g><defs><mask></mask></defs></svg><rect width="64.89038868995881" height="95.481" fill="black" stroke="none" visibility="hidden"></rect></g></mask><linearGradient x1="0" x2="1" y1="0.578" y2="0.595" id="19bc02bf-b20e-4315-9bec-ca02abcc3590"><stop stop-color="#dede50" offset="0"></stop><stop stop-color="#559c49" offset="1"></stop></linearGradient><rect width="64.89038868995881" height="95.481" fill="url(#19bc02bf-b20e-4315-9bec-ca02abcc3590)" mask="url(#af87346c-666d-42d9-9035-b357b2a1c294)" data-fill-palette-color="accent"></rect></svg><rect width="64.89038868995881" height="95.481" fill="none" stroke="none" visibility="hidden"></rect></g></svg></g></svg>